<?xml version="1.0" encoding="UTF-8" standalone="no"?>
<svg
   width="308"
   height="62"
   viewBox="0 0 308 62"
   fill="none"
   version="1.1"
   id="svg66"
   sodipodi:docname="logo.svg"
   inkscape:version="1.1 (ce6663b3b7, 2021-05-25)"
   xmlns:inkscape="http://www.inkscape.org/namespaces/inkscape"
   xmlns:sodipodi="http://sodipodi.sourceforge.net/DTD/sodipodi-0.dtd"
   xmlns="http://www.w3.org/2000/svg"
   xmlns:svg="http://www.w3.org/2000/svg">
  <defs
     id="defs70" />
  <sodipodi:namedview
     id="namedview68"
     pagecolor="#505050"
     bordercolor="#eeeeee"
     borderopacity="1"
     inkscape:pageshadow="0"
     inkscape:pageopacity="0"
     inkscape:pagecheckerboard="0"
     showgrid="false"
     inkscape:zoom="2.0146104"
     inkscape:cx="127.56809"
     inkscape:cy="52.119258"
     inkscape:window-width="1366"
     inkscape:window-height="731"
     inkscape:window-x="0"
     inkscape:window-y="0"
     inkscape:window-maximized="1"
     inkscape:current-layer="svg66" />
  <path
     d="m 105.83931,26.27466 -0.0163,-9.359927 h -8.495683 v 3.424364 h 3.929863 l -0.0163,4.304914 q -0.17938,0.211985 -0.53812,0.407662 -0.34244,0.179372 -0.799017,0.32613 -0.456582,0.146759 -0.97839,0.228291 -0.521808,0.08153 -1.059922,0.08153 -0.880551,-0.01631 -1.58173,-0.277211 -0.684872,-0.27721 -1.20668,-0.799018 -0.309824,-0.309823 -0.570728,-0.701179 -0.244597,-0.407662 -0.440275,-0.880551 -0.309823,-0.815324 -0.489195,-1.875246 -0.163065,-1.059923 -0.163065,-2.348136 v -3.261298 q 0,-1.027309 0.114146,-1.90786 0.130452,-0.880551 0.358743,-1.598036 0.293517,-0.92947 0.733792,-1.614343 0.456582,-0.6848728 1.011003,-1.1088417 0.423968,-0.3098234 0.913163,-0.4728883 0.489195,-0.1630649 1.011003,-0.1630649 0.962083,0 1.646956,0.2609039 0.701179,0.2445974 1.157756,0.7500987 0.40767,0.4565813 0.63596,1.1251483 0.2446,0.668566 0.35874,1.53281 h 4.46798 Q 105.64364,10.63673 105.0566,9.2669848 104.48588,7.8972394 103.45857,6.9351563 102.43126,5.9893797 100.93106,5.4838784 99.447171,4.9783771 97.441472,4.9783771 q -1.304519,0 -2.478587,0.3587428 -1.174067,0.3587429 -2.168763,1.0599221 -0.847938,0.6196467 -1.565424,1.4675844 -0.701179,0.8479377 -1.239293,1.9078597 -0.570727,1.1903739 -0.880551,2.6579589 -0.309823,1.451277 -0.309823,3.147153 v 3.228685 q 0,1.777408 0.309823,3.293912 0.32613,1.516504 0.945777,2.723185 0.538114,1.092535 1.304519,1.940472 0.782712,0.847938 1.728489,1.434972 0.962083,0.570727 2.103537,0.864244 1.157761,0.309823 2.462281,0.309823 1.500197,0 2.804713,-0.27721 1.30452,-0.277211 2.36445,-0.733792 1.04361,-0.440276 1.81002,-0.994696 0.7664,-0.554421 1.20668,-1.092536 z"
     style="font-weight:bold;font-size:33.3957px;line-height:0.75;font-family:'Roboto Mono';-inkscape-font-specification:'Roboto Mono';letter-spacing:0px;word-spacing:0px;fill:#ffffff;stroke-width:0.834893"
     id="path2583" />
  <path
     d="m 109.1006,20.061886 v 0.342437 q 0,1.940473 0.55443,3.587428 0.55442,1.63065 1.63064,2.83733 1.05993,1.206681 2.60904,1.891554 1.56543,0.668566 3.55482,0.668566 1.97308,0 3.5222,-0.668566 1.54912,-0.684873 2.60904,-1.891554 1.05992,-1.20668 1.61434,-2.83733 0.55442,-1.646955 0.55442,-3.587428 v -0.342437 q 0,-1.924166 -0.55442,-3.554815 -0.55442,-1.646956 -1.61434,-2.853636 -1.07623,-1.206681 -2.62534,-1.891554 -1.54912,-0.684872 -3.53851,-0.684872 -1.9894,0 -3.53851,0.684872 -1.53281,0.684873 -2.59274,1.891554 -1.07622,1.20668 -1.63064,2.853636 -0.55443,1.630649 -0.55443,3.554815 z m 4.53321,0.342437 v -0.342437 q 0,-1.076228 0.21198,-2.038311 0.21199,-0.962083 0.66857,-1.695876 0.45658,-0.733792 1.17407,-1.157761 0.71748,-0.423968 1.72849,-0.423968 1.02731,0 1.74479,0.423968 0.71749,0.423969 1.17407,1.157761 0.44027,0.733793 0.65226,1.695876 0.21198,0.962083 0.21198,2.038311 v 0.342437 q 0,1.108841 -0.21198,2.087231 -0.21199,0.962083 -0.65226,1.679569 -0.45658,0.733792 -1.17407,1.157761 -0.71748,0.423969 -1.71218,0.423969 -1.02731,0 -1.7611,-0.423969 -0.71749,-0.423969 -1.17407,-1.157761 -0.45658,-0.717486 -0.66857,-1.679569 -0.21198,-0.97839 -0.21198,-2.087231 z"
     style="font-weight:bold;font-size:33.3957px;line-height:0.75;font-family:'Roboto Mono';-inkscape-font-specification:'Roboto Mono';letter-spacing:0px;word-spacing:0px;fill:#ffffff;stroke-width:0.834893"
     id="path2585" />
  <path
     d="m 129.14128,20.061886 v 0.342437 q 0,1.940473 0.55443,3.587428 0.55442,1.63065 1.63064,2.83733 1.05993,1.206681 2.60904,1.891554 1.56543,0.668566 3.55482,0.668566 1.97308,0 3.5222,-0.668566 1.54912,-0.684873 2.60904,-1.891554 1.05992,-1.20668 1.61434,-2.83733 0.55442,-1.646955 0.55442,-3.587428 v -0.342437 q 0,-1.924166 -0.55442,-3.554815 -0.55442,-1.646956 -1.61434,-2.853636 -1.07623,-1.206681 -2.62534,-1.891554 -1.54912,-0.684872 -3.53851,-0.684872 -1.9894,0 -3.53851,0.684872 -1.53281,0.684873 -2.59274,1.891554 -1.07622,1.20668 -1.63064,2.853636 -0.55443,1.630649 -0.55443,3.554815 z m 4.53321,0.342437 v -0.342437 q 0,-1.076228 0.21198,-2.038311 0.21199,-0.962083 0.66857,-1.695876 0.45658,-0.733792 1.17407,-1.157761 0.71748,-0.423968 1.72849,-0.423968 1.02731,0 1.74479,0.423968 0.71749,0.423969 1.17407,1.157761 0.44027,0.733793 0.65226,1.695876 0.21198,0.962083 0.21198,2.038311 v 0.342437 q 0,1.108841 -0.21198,2.087231 -0.21199,0.962083 -0.65226,1.679569 -0.45658,0.733792 -1.17407,1.157761 -0.71748,0.423969 -1.71218,0.423969 -1.02731,0 -1.7611,-0.423969 -0.71749,-0.423969 -1.17407,-1.157761 -0.45658,-0.717486 -0.66857,-1.679569 -0.21198,-0.97839 -0.21198,-2.087231 z"
     style="font-weight:bold;font-size:33.3957px;line-height:0.75;font-family:'Roboto Mono';-inkscape-font-specification:'Roboto Mono';letter-spacing:0px;word-spacing:0px;fill:#ffffff;stroke-width:0.834893"
     id="path2587" />
  <path
     d="m 149.32872,20.094499 v 0.342437 q 0,1.924166 0.47289,3.571122 0.47289,1.630649 1.36975,2.821023 0.88055,1.190374 2.15245,1.875247 1.28822,0.668566 2.90256,0.668566 1.48389,0 2.60904,-0.570727 1.12515,-0.570727 1.95678,-1.598036 l 0.22829,1.842633 h 4.09293 V 3.9999905 h -4.54951 v 8.9848775 q -0.81533,-0.913163 -1.87525,-1.402358 -1.04362,-0.505501 -2.42967,-0.505501 -1.64695,0 -2.93517,0.652259 -1.2719,0.65226 -2.16876,1.842634 -0.89686,1.190374 -1.36975,2.853636 -0.45658,1.663263 -0.45658,3.668961 z m 4.53321,0.342437 v -0.342437 q 0,-1.108841 0.19568,-2.070924 0.19567,-0.97839 0.61964,-1.712182 0.42397,-0.717486 1.09254,-1.125148 0.68487,-0.423969 1.64695,-0.423969 1.15776,0 1.92417,0.505501 0.76641,0.489195 1.22299,1.386052 v 7.142244 q -0.45658,0.880551 -1.2393,1.386052 -0.7664,0.505502 -1.94047,0.505502 -0.96208,0 -1.63065,-0.407663 -0.66856,-0.407662 -1.09253,-1.125148 -0.42397,-0.701179 -0.61965,-1.646955 -0.17937,-0.962084 -0.17937,-2.070925 z"
     style="font-weight:bold;font-size:33.3957px;line-height:0.75;font-family:'Roboto Mono';-inkscape-font-specification:'Roboto Mono';letter-spacing:0px;word-spacing:0px;fill:#ffffff;stroke-width:0.834893"
     id="path2589" />
  <path
     d="M 184.74643,19.213949 V 15.496068 H 174.57117 V 9.0386969 h 11.44716 V 5.3045099 H 169.97274 V 29.046764 h 4.59843 v -9.832815 z"
     style="font-weight:bold;font-size:33.3957px;line-height:0.75;font-family:'Roboto Mono';-inkscape-font-specification:'Roboto Mono';letter-spacing:0px;word-spacing:0px;fill:#ffffff;stroke-width:0.834893"
     id="path2591" />
  <path
     d="m 189.26332,20.061886 v 0.342437 q 0,1.940473 0.55443,3.587428 0.55442,1.63065 1.63064,2.83733 1.05993,1.206681 2.60904,1.891554 1.56543,0.668566 3.55482,0.668566 1.97308,0 3.5222,-0.668566 1.54912,-0.684873 2.60904,-1.891554 1.05992,-1.20668 1.61434,-2.83733 0.55442,-1.646955 0.55442,-3.587428 v -0.342437 q 0,-1.924166 -0.55442,-3.554815 -0.55442,-1.646956 -1.61434,-2.853636 -1.07623,-1.206681 -2.62534,-1.891554 -1.54912,-0.684872 -3.53851,-0.684872 -1.9894,0 -3.53851,0.684872 -1.53281,0.684873 -2.59274,1.891554 -1.07622,1.20668 -1.63064,2.853636 -0.55443,1.630649 -0.55443,3.554815 z m 4.53321,0.342437 v -0.342437 q 0,-1.076228 0.21198,-2.038311 0.21199,-0.962083 0.66857,-1.695876 0.45658,-0.733792 1.17407,-1.157761 0.71748,-0.423968 1.72849,-0.423968 1.02731,0 1.74479,0.423968 0.71749,0.423969 1.17407,1.157761 0.44027,0.733793 0.65226,1.695876 0.21198,0.962083 0.21198,2.038311 v 0.342437 q 0,1.108841 -0.21198,2.087231 -0.21199,0.962083 -0.65226,1.679569 -0.45658,0.733792 -1.17407,1.157761 -0.71748,0.423969 -1.71218,0.423969 -1.02731,0 -1.7611,-0.423969 -0.71749,-0.423969 -1.17407,-1.157761 -0.45658,-0.717486 -0.66857,-1.679569 -0.21198,-0.97839 -0.21198,-2.087231 z"
     style="font-weight:bold;font-size:33.3957px;line-height:0.75;font-family:'Roboto Mono';-inkscape-font-specification:'Roboto Mono';letter-spacing:0px;word-spacing:0px;fill:#ffffff;stroke-width:0.834893"
     id="path2593" />
  <path
     d="m 209.304,20.061886 v 0.342437 q 0,1.940473 0.55443,3.587428 0.55442,1.63065 1.63064,2.83733 1.05993,1.206681 2.60904,1.891554 1.56543,0.668566 3.55482,0.668566 1.97308,0 3.5222,-0.668566 1.54912,-0.684873 2.60904,-1.891554 1.05992,-1.20668 1.61434,-2.83733 0.55442,-1.646955 0.55442,-3.587428 v -0.342437 q 0,-1.924166 -0.55442,-3.554815 -0.55442,-1.646956 -1.61434,-2.853636 -1.07623,-1.206681 -2.62535,-1.891554 -1.54911,-0.684872 -3.5385,-0.684872 -1.9894,0 -3.53851,0.684872 -1.53281,0.684873 -2.59274,1.891554 -1.07622,1.20668 -1.63064,2.853636 -0.55443,1.630649 -0.55443,3.554815 z m 4.53321,0.342437 v -0.342437 q 0,-1.076228 0.21198,-2.038311 0.21199,-0.962083 0.66857,-1.695876 0.45658,-0.733792 1.17407,-1.157761 0.71748,-0.423968 1.72849,-0.423968 1.0273,0 1.74479,0.423968 0.71749,0.423969 1.17407,1.157761 0.44027,0.733793 0.65226,1.695876 0.21198,0.962083 0.21198,2.038311 v 0.342437 q 0,1.108841 -0.21198,2.087231 -0.21199,0.962083 -0.65226,1.679569 -0.45658,0.733792 -1.17407,1.157761 -0.71749,0.423969 -1.71218,0.423969 -1.02731,0 -1.7611,-0.423969 -0.71749,-0.423969 -1.17407,-1.157761 -0.45658,-0.717486 -0.66857,-1.679569 -0.21198,-0.97839 -0.21198,-2.087231 z"
     style="font-weight:bold;font-size:33.3957px;line-height:0.75;font-family:'Roboto Mono';-inkscape-font-specification:'Roboto Mono';letter-spacing:0px;word-spacing:0px;fill:#ffffff;stroke-width:0.834893"
     id="path2595" />
  <path
     d="m 229.49144,20.094499 v 0.342437 q 0,1.924166 0.47289,3.571122 0.47289,1.630649 1.36975,2.821023 0.88055,1.190374 2.15245,1.875247 1.28822,0.668566 2.90256,0.668566 1.48389,0 2.60904,-0.570727 1.12515,-0.570727 1.95678,-1.598036 l 0.22829,1.842633 h 4.09293 V 3.9999905 h -4.54951 v 8.9848775 q -0.81533,-0.913163 -1.87525,-1.402358 -1.04362,-0.505501 -2.42967,-0.505501 -1.64695,0 -2.93517,0.652259 -1.2719,0.65226 -2.16876,1.842634 -0.89686,1.190374 -1.36975,2.853636 -0.45658,1.663263 -0.45658,3.668961 z m 4.53321,0.342437 v -0.342437 q 0,-1.108841 0.19568,-2.070924 0.19567,-0.97839 0.61964,-1.712182 0.42397,-0.717486 1.09254,-1.125148 0.68487,-0.423969 1.64695,-0.423969 1.15776,0 1.92417,0.505501 0.7664,0.489195 1.22299,1.386052 v 7.142244 q -0.45659,0.880551 -1.2393,1.386052 -0.7664,0.505502 -1.94047,0.505502 -0.96208,0 -1.63065,-0.407663 -0.66857,-0.407662 -1.09253,-1.125148 -0.42397,-0.701179 -0.61965,-1.646955 -0.17937,-0.962084 -0.17937,-2.070925 z"
     style="font-weight:bold;font-size:33.3957px;line-height:0.75;font-family:'Roboto Mono';-inkscape-font-specification:'Roboto Mono';letter-spacing:0px;word-spacing:0px;fill:#ffffff;stroke-width:0.834893"
     id="path2597" />
  <path
     d="m 96.805481,43.943853 v -1.288209 h -8.80548 v 1.288209 h 3.66895 v 10.582883 h 1.46758 V 43.943853 Z"
     style="font-size:16.6978px;line-height:0.75;font-family:'Roboto Mono';-inkscape-font-specification:'Roboto Mono';letter-spacing:0px;word-spacing:0px;fill:#63b3ed;stroke-width:0.834893"
     id="path2599" />
  <path
     d="m 100.32767,47.017618 v -5.014232 h -1.508343 v 12.52335 h 1.508343 v -6.408433 q 0.16307,-0.260903 0.3669,-0.472887 0.21198,-0.220137 0.45658,-0.383202 0.30982,-0.211984 0.67672,-0.326129 0.36689,-0.114145 0.77455,-0.114145 0.49735,-0.0082 0.88055,0.138605 0.3832,0.138605 0.63595,0.423968 0.23645,0.260903 0.35874,0.660411 0.1223,0.391354 0.1223,0.913161 v 5.568651 h 1.50835 v -5.552345 q 0,-0.888701 -0.22014,-1.532806 -0.21198,-0.652258 -0.61149,-1.076225 -0.39951,-0.423968 -0.97023,-0.619645 -0.56258,-0.203831 -1.2556,-0.203831 -0.52996,0.0082 -1.00285,0.154912 -0.46473,0.146758 -0.85609,0.43212 -0.24459,0.171218 -0.46473,0.399508 -0.22014,0.220137 -0.39951,0.489194 z"
     style="font-size:16.6978px;line-height:0.75;font-family:'Roboto Mono';-inkscape-font-specification:'Roboto Mono';letter-spacing:0px;word-spacing:0px;fill:#63b3ed;stroke-width:0.834893"
     id="path2601" />
  <path
     d="m 112.73688,54.6898 q 1.28821,0 2.1606,-0.513653 0.88055,-0.521806 1.32082,-1.190371 l -0.92131,-0.717483 q -0.41581,0.538113 -1.04361,0.864241 -0.6278,0.326129 -1.43497,0.326129 -0.61149,0 -1.11699,-0.22829 -0.5055,-0.22829 -0.86424,-0.627798 -0.35059,-0.375048 -0.55442,-0.864242 -0.19568,-0.489193 -0.25275,-1.133298 v -0.05707 h 6.30244 v -0.676718 q 0,-0.921314 -0.23644,-1.712176 -0.22829,-0.790863 -0.70118,-1.377895 -0.47289,-0.578879 -1.19037,-0.905008 -0.70933,-0.334282 -1.66326,-0.334282 -0.75825,0 -1.48389,0.309823 -0.71748,0.309822 -1.28005,0.888701 -0.57073,0.587032 -0.91316,1.434967 -0.34244,0.839782 -0.34244,1.907854 v 0.342436 q 0,0.921314 0.30982,1.704023 0.30983,0.782709 0.86425,1.353435 0.55441,0.570726 1.32897,0.888701 0.78271,0.317976 1.71218,0.317976 z m -0.19568,-7.908626 q 0.57888,0 0.99469,0.211984 0.42397,0.211984 0.70118,0.554419 0.27721,0.342435 0.43212,0.815322 0.15491,0.464734 0.15491,0.872395 v 0.07338 h -4.74517 q 0.0897,-0.611492 0.30982,-1.076225 0.22829,-0.472887 0.55442,-0.799016 0.32613,-0.317976 0.73379,-0.48104 0.40766,-0.171218 0.86424,-0.171219 z"
     style="font-size:16.6978px;line-height:0.75;font-family:'Roboto Mono';-inkscape-font-specification:'Roboto Mono';letter-spacing:0px;word-spacing:0px;fill:#63b3ed;stroke-width:0.834893"
     id="path2603" />
  <path
     d="m 128.60305,50.042463 v 0.171218 q 0,0.945774 0.2446,1.769249 0.24459,0.815322 0.70117,1.418661 0.44843,0.603338 1.10069,0.945774 0.65226,0.342435 1.45942,0.342435 0.48104,0 0.89686,-0.105992 0.41581,-0.09784 0.75825,-0.285363 0.22014,-0.122298 0.40766,-0.285362 0.19568,-0.163065 0.36689,-0.358742 v 0.758249 q 0,0.570726 -0.16306,1.011 -0.16306,0.440274 -0.46473,0.73379 -0.30983,0.301669 -0.74195,0.45658 -0.43212,0.154912 -0.97023,0.154912 -0.30167,0 -0.60334,-0.06523 -0.30167,-0.05707 -0.60334,-0.195677 -0.30167,-0.138605 -0.59518,-0.375049 -0.29352,-0.22829 -0.57073,-0.562572 l -0.78271,0.905008 q 0.30167,0.43212 0.71749,0.725637 0.42396,0.293516 0.88054,0.464733 0.44843,0.179371 0.88871,0.25275 0.44027,0.08153 0.7827,0.08153 0.83163,0 1.5165,-0.244596 0.68487,-0.244597 1.18222,-0.717484 0.48919,-0.472887 0.75825,-1.149604 0.27721,-0.676718 0.27721,-1.549113 v -8.634262 h -1.36974 l -0.0734,0.96208 q -0.15491,-0.195677 -0.33428,-0.358742 -0.17122,-0.163064 -0.3669,-0.285363 -0.35874,-0.236443 -0.80717,-0.358741 -0.44027,-0.122299 -0.97023,-0.122299 -0.82347,0 -1.47573,0.334282 -0.65226,0.334283 -1.10884,0.929468 -0.45658,0.595185 -0.70118,1.426814 -0.23644,0.823475 -0.23644,1.810015 z m 1.50834,0.171218 v -0.171218 q 0,-0.644104 0.13046,-1.222983 0.1386,-0.587032 0.43212,-1.035459 0.28536,-0.440275 0.73379,-0.701178 0.45658,-0.260903 1.09253,-0.260903 0.37505,0 0.68487,0.09784 0.30982,0.08969 0.56257,0.25275 0.25275,0.171217 0.44843,0.399508 0.19568,0.22829 0.34243,0.5055 v 4.043998 q -0.14675,0.285363 -0.34243,0.521806 -0.19568,0.236444 -0.44027,0.407661 -0.25275,0.171218 -0.57073,0.269057 -0.30982,0.08969 -0.70118,0.08969 -0.6278,0 -1.07622,-0.25275 -0.44843,-0.260903 -0.73379,-0.701177 -0.29352,-0.440274 -0.43212,-1.019153 -0.13046,-0.578879 -0.13046,-1.222983 z"
     style="font-size:16.6978px;line-height:0.75;font-family:'Roboto Mono';-inkscape-font-specification:'Roboto Mono';letter-spacing:0px;word-spacing:0px;fill:#63b3ed;stroke-width:0.834893"
     id="path2605" />
  <path
     d="m 144.6812,45.541884 q -0.96208,0 -1.72033,0.423968 -0.75009,0.415814 -1.28821,1.141451 l -0.008,-0.220137 -0.0652,-1.182217 h -1.43496 v 8.821787 h 1.5165 v -5.658337 q 0.14675,-0.407661 0.36689,-0.73379 0.22829,-0.334282 0.52996,-0.562572 0.33428,-0.260903 0.78271,-0.391355 0.44843,-0.138605 1.00285,-0.138605 0.43212,0 0.82347,0.04892 0.39951,0.04077 0.83978,0.138604 l 0.20383,-1.475733 q -0.22829,-0.09784 -0.68487,-0.154911 -0.44842,-0.05707 -0.86424,-0.05707 z"
     style="font-size:16.6978px;line-height:0.75;font-family:'Roboto Mono';-inkscape-font-specification:'Roboto Mono';letter-spacing:0px;word-spacing:0px;fill:#63b3ed;stroke-width:0.834893"
     id="path2607" />
  <path
     d="m 152.81812,54.6898 q 1.28821,0 2.16061,-0.513653 0.88054,-0.521806 1.32082,-1.190371 l -0.92132,-0.717483 q -0.41581,0.538113 -1.04361,0.864241 -0.6278,0.326129 -1.43497,0.326129 -0.61149,0 -1.11699,-0.22829 -0.5055,-0.22829 -0.86424,-0.627798 -0.35059,-0.375048 -0.55442,-0.864242 -0.19568,-0.489193 -0.25275,-1.133298 v -0.05707 h 6.30244 v -0.676718 q 0,-0.921314 -0.23644,-1.712176 -0.22829,-0.790863 -0.70118,-1.377895 -0.47289,-0.578879 -1.19037,-0.905008 -0.70933,-0.334282 -1.66326,-0.334282 -0.75825,0 -1.48388,0.309823 -0.71749,0.309822 -1.28006,0.888701 -0.57072,0.587032 -0.91316,1.434967 -0.34243,0.839782 -0.34243,1.907854 v 0.342436 q 0,0.921314 0.30982,1.704023 0.30982,0.782709 0.86424,1.353435 0.55442,0.570726 1.32897,0.888701 0.78271,0.317976 1.71218,0.317976 z m -0.19568,-7.908626 q 0.57888,0 0.9947,0.211984 0.42396,0.211984 0.70117,0.554419 0.27721,0.342435 0.43212,0.815322 0.15492,0.464734 0.15492,0.872395 v 0.07338 h -4.74518 q 0.0897,-0.611492 0.30982,-1.076225 0.22829,-0.472887 0.55442,-0.799016 0.32613,-0.317976 0.73379,-0.48104 0.40766,-0.171218 0.86424,-0.171219 z"
     style="font-size:16.6978px;line-height:0.75;font-family:'Roboto Mono';-inkscape-font-specification:'Roboto Mono';letter-spacing:0px;word-spacing:0px;fill:#63b3ed;stroke-width:0.834893"
     id="path2609" />
  <path
     d="m 164.73813,54.526736 h 1.57357 v -0.130452 q -0.14675,-0.366895 -0.22829,-0.856088 -0.0815,-0.497347 -0.0815,-0.937621 v -4.101071 q 0,-0.741943 -0.26906,-1.296362 -0.26905,-0.554419 -0.73379,-0.929468 -0.47288,-0.366895 -1.11699,-0.546266 -0.6441,-0.187524 -1.3942,-0.187524 -0.82347,0 -1.47573,0.228291 -0.64411,0.22829 -1.09253,0.595185 -0.45658,0.375048 -0.70118,0.839782 -0.23644,0.464733 -0.2446,0.945774 h 1.5165 q 0,-0.27721 0.13045,-0.52996 0.13861,-0.260903 0.38321,-0.448427 0.24459,-0.187524 0.59518,-0.301669 0.35874,-0.114146 0.80717,-0.114146 0.48104,0 0.86424,0.122299 0.39136,0.122298 0.66041,0.342435 0.26906,0.22829 0.41582,0.546266 0.14675,0.317976 0.14675,0.717484 v 0.693024 h -1.64695 q -0.92131,0 -1.67141,0.17937 -0.74194,0.179371 -1.2719,0.538113 -0.52996,0.366895 -0.82347,0.913161 -0.28537,0.546266 -0.28537,1.271903 0,0.554419 0.21199,1.035459 0.22013,0.472887 0.61964,0.815322 0.39136,0.350589 0.95393,0.554419 0.57072,0.203831 1.2719,0.203831 0.43212,0 0.81532,-0.08968 0.3832,-0.08969 0.72564,-0.244597 0.33428,-0.154911 0.61149,-0.358742 0.28536,-0.203831 0.51365,-0.432121 0.0245,0.27721 0.0734,0.538113 0.0571,0.25275 0.14676,0.423968 z m -2.6661,-1.149605 q -0.44028,0 -0.77456,-0.114145 -0.33428,-0.114145 -0.55442,-0.317976 -0.22013,-0.195677 -0.33428,-0.472887 -0.10599,-0.277209 -0.10599,-0.603338 0,-0.342435 0.1223,-0.611492 0.13045,-0.269056 0.37505,-0.464733 0.34243,-0.27721 0.92131,-0.407662 0.58703,-0.138604 1.36974,-0.138604 h 1.40235 v 1.785555 q -0.13045,0.260904 -0.35874,0.5055 -0.22829,0.236444 -0.53811,0.423968 -0.31798,0.187524 -0.70118,0.301669 -0.3832,0.114145 -0.82347,0.114145 z"
     style="font-size:16.6978px;line-height:0.75;font-family:'Roboto Mono';-inkscape-font-specification:'Roboto Mono';letter-spacing:0px;word-spacing:0px;fill:#63b3ed;stroke-width:0.834893"
     id="path2611" />
  <path
     d="m 172.53261,43.568804 h -1.5165 v 2.136145 h -2.31551 v 1.165911 h 2.31551 v 4.794094 q 0,0.815323 0.21199,1.394201 0.22013,0.570726 0.59518,0.929468 0.37505,0.366895 0.88055,0.538113 0.51365,0.163064 1.10068,0.163064 0.35059,0 0.70118,-0.03261 0.35874,-0.03261 0.67672,-0.09784 0.31797,-0.05707 0.58703,-0.138604 0.26906,-0.08969 0.45658,-0.203831 l -0.21198,-1.068072 q -0.13861,0.03261 -0.35874,0.08153 -0.21199,0.04077 -0.45659,0.08153 -0.25274,0.04077 -0.51365,0.07338 -0.2609,0.02446 -0.5055,0.02446 -0.33428,0 -0.63595,-0.08153 -0.29352,-0.08153 -0.52181,-0.285363 -0.22829,-0.195677 -0.35874,-0.529959 -0.13045,-0.334283 -0.13045,-0.847936 V 46.87086 h 3.35913 v -1.165911 h -3.35913 z"
     style="font-size:16.6978px;line-height:0.75;font-family:'Roboto Mono';-inkscape-font-specification:'Roboto Mono';letter-spacing:0px;word-spacing:0px;fill:#63b3ed;stroke-width:0.834893"
     id="path2613" />
  <path
     d="m 182.87905,54.6898 q 1.28821,0 2.1606,-0.513653 0.88055,-0.521806 1.32083,-1.190371 l -0.92132,-0.717483 q -0.41581,0.538113 -1.04361,0.864241 -0.6278,0.326129 -1.43497,0.326129 -0.61149,0 -1.11699,-0.22829 -0.5055,-0.22829 -0.86424,-0.627798 -0.35059,-0.375048 -0.55442,-0.864242 -0.19568,-0.489193 -0.25275,-1.133298 v -0.05707 h 6.30244 v -0.676718 q 0,-0.921314 -0.23644,-1.712176 -0.22829,-0.790863 -0.70118,-1.377895 -0.47289,-0.578879 -1.19037,-0.905008 -0.70933,-0.334282 -1.66326,-0.334282 -0.75825,0 -1.48388,0.309823 -0.71749,0.309822 -1.28006,0.888701 -0.57073,0.587032 -0.91316,1.434967 -0.34244,0.839782 -0.34244,1.907854 v 0.342436 q 0,0.921314 0.30983,1.704023 0.30982,0.782709 0.86424,1.353435 0.55442,0.570726 1.32897,0.888701 0.78271,0.317976 1.71218,0.317976 z m -0.19568,-7.908626 q 0.57888,0 0.9947,0.211984 0.42396,0.211984 0.70117,0.554419 0.27721,0.342435 0.43212,0.815322 0.15491,0.464734 0.15491,0.872395 v 0.07338 h -4.74517 q 0.0897,-0.611492 0.30982,-1.076225 0.22829,-0.472887 0.55442,-0.799016 0.32613,-0.317976 0.73379,-0.48104 0.40766,-0.171218 0.86424,-0.171219 z"
     style="font-size:16.6978px;line-height:0.75;font-family:'Roboto Mono';-inkscape-font-specification:'Roboto Mono';letter-spacing:0px;word-spacing:0px;fill:#63b3ed;stroke-width:0.834893"
     id="path2615" />
  <path
     d="m 194.86429,52.186761 q 0,0.211983 -0.0815,0.399508 -0.0815,0.187524 -0.23644,0.342435 -0.25275,0.25275 -0.70118,0.399508 -0.44842,0.138605 -1.05176,0.138605 -0.3832,0 -0.77456,-0.08153 -0.39135,-0.08153 -0.70933,-0.277209 -0.32613,-0.195678 -0.54627,-0.513653 -0.21198,-0.317976 -0.24459,-0.78271 h -1.50835 q 0,0.562573 0.25275,1.084379 0.2609,0.521806 0.7501,0.913161 0.48104,0.399508 1.18222,0.644105 0.70117,0.236443 1.59803,0.236443 0.78271,0 1.44312,-0.187524 0.66041,-0.187524 1.1333,-0.52996 0.47288,-0.342435 0.73379,-0.823475 0.26905,-0.48104 0.26905,-1.068072 0,-0.546266 -0.23644,-0.96208 -0.22829,-0.415815 -0.66857,-0.733791 -0.44027,-0.309822 -1.08437,-0.529959 -0.64411,-0.22829 -1.45943,-0.399508 -0.61965,-0.122298 -1.02731,-0.25275 -0.39951,-0.130451 -0.63595,-0.293516 -0.2446,-0.163064 -0.34243,-0.366895 -0.0978,-0.20383 -0.0978,-0.464733 0,-0.25275 0.1223,-0.489194 0.12229,-0.236443 0.36689,-0.415814 0.23644,-0.179371 0.59519,-0.285363 0.36689,-0.105992 0.84793,-0.105992 0.46473,0 0.83163,0.130452 0.37505,0.130451 0.63595,0.342435 0.2609,0.211984 0.40766,0.489193 0.14676,0.269057 0.14676,0.55442 h 1.50835 q 0,-0.578879 -0.25275,-1.076226 -0.2446,-0.5055 -0.70118,-0.880548 -0.45658,-0.375048 -1.10884,-0.587032 -0.65226,-0.211984 -1.46758,-0.211984 -0.75825,0 -1.3942,0.203831 -0.6278,0.20383 -1.08438,0.554419 -0.45658,0.350589 -0.70933,0.823475 -0.25275,0.464734 -0.25275,1.002847 0,0.546266 0.2446,0.96208 0.24459,0.407661 0.69302,0.70933 0.44028,0.309823 1.05992,0.52996 0.6278,0.220137 1.38605,0.375048 0.61964,0.122299 1.03546,0.27721 0.41581,0.146758 0.66856,0.326129 0.25275,0.179371 0.35874,0.399508 0.106,0.211983 0.106,0.48104 z"
     style="font-size:16.6978px;line-height:0.75;font-family:'Roboto Mono';-inkscape-font-specification:'Roboto Mono';letter-spacing:0px;word-spacing:0px;fill:#63b3ed;stroke-width:0.834893"
     id="path2617" />
  <path
     d="m 202.59354,43.568804 h -1.5165 v 2.136145 h -2.31552 v 1.165911 h 2.31552 v 4.794094 q 0,0.815323 0.21198,1.394201 0.22014,0.570726 0.59519,0.929468 0.37505,0.366895 0.88055,0.538113 0.51365,0.163064 1.10068,0.163064 0.35059,0 0.70118,-0.03261 0.35874,-0.03261 0.67672,-0.09784 0.31797,-0.05707 0.58703,-0.138604 0.26906,-0.08969 0.45658,-0.203831 l -0.21198,-1.068072 q -0.13861,0.03261 -0.35875,0.08153 -0.21198,0.04077 -0.45658,0.08153 -0.25275,0.04077 -0.51365,0.07338 -0.2609,0.02446 -0.5055,0.02446 -0.33428,0 -0.63595,-0.08153 -0.29352,-0.08153 -0.52181,-0.285363 -0.22829,-0.195677 -0.35874,-0.529959 -0.13045,-0.334283 -0.13045,-0.847936 V 46.87086 h 3.35913 v -1.165911 h -3.35913 z"
     style="font-size:16.6978px;line-height:0.75;font-family:'Roboto Mono';-inkscape-font-specification:'Roboto Mono';letter-spacing:0px;word-spacing:0px;fill:#63b3ed;stroke-width:0.834893"
     id="path2619" />
  <path
     d="m 222.82169,53.466817 q -0.70933,0 -1.19037,-0.27721 -0.47289,-0.285363 -0.75825,-0.741943 -0.29352,-0.448427 -0.42397,-1.011 -0.1223,-0.570725 -0.1223,-1.149604 v -0.342436 q 0,-0.570725 0.1223,-1.133297 0.13045,-0.562573 0.42397,-1.019153 0.29352,-0.448428 0.7664,-0.725637 0.48104,-0.285363 1.18222,-0.285363 0.45658,0 0.84794,0.154911 0.3995,0.154912 0.68487,0.423968 0.28536,0.269056 0.44842,0.627798 0.17122,0.350589 0.17937,0.750097 h 1.42682 q 0,-0.668565 -0.26906,-1.255597 -0.26905,-0.587032 -0.74194,-1.019153 -0.48104,-0.423967 -1.14145,-0.668564 -0.65226,-0.25275 -1.43497,-0.25275 -1.00285,0 -1.75294,0.358742 -0.7501,0.358742 -1.24745,0.96208 -0.5055,0.611492 -0.75825,1.410508 -0.25275,0.799016 -0.25275,1.67141 v 0.342436 q 0,0.880548 0.25275,1.679564 0.25275,0.790862 0.75825,1.394201 0.49735,0.611491 1.24745,0.970233 0.75009,0.358742 1.75294,0.358742 0.70118,0 1.34528,-0.236443 0.64411,-0.244597 1.14145,-0.652258 0.49735,-0.399508 0.79087,-0.929468 0.30166,-0.538112 0.30982,-1.125144 h -1.42682 q -0.008,0.366895 -0.19567,0.68487 -0.17937,0.309823 -0.48104,0.538113 -0.30167,0.236443 -0.69303,0.366895 -0.3832,0.130452 -0.79086,0.130452 z"
     style="font-size:16.6978px;line-height:0.75;font-family:'Roboto Mono';-inkscape-font-specification:'Roboto Mono';letter-spacing:0px;word-spacing:0px;fill:#63b3ed;stroke-width:0.834893"
     id="path2621" />
  <path
     d="m 234.89661,54.526736 h 1.36974 v -8.821787 h -1.5165 v 6.3269 q -0.12229,0.285363 -0.30982,0.52996 -0.17937,0.236443 -0.42397,0.407661 -0.29351,0.211984 -0.69302,0.334282 -0.39951,0.114145 -0.90501,0.114145 -0.43212,0 -0.7664,-0.114145 -0.32613,-0.114145 -0.55442,-0.399508 -0.22829,-0.277209 -0.34244,-0.750096 -0.11414,-0.472887 -0.11414,-1.190371 v -5.258828 h -1.50835 v 5.242522 q 0,0.98654 0.21199,1.69587 0.22013,0.701177 0.61964,1.157758 0.39951,0.45658 0.96208,0.676717 0.56257,0.211984 1.2556,0.211984 0.86424,0 1.52465,-0.358742 0.66041,-0.366895 1.10069,-1.019153 z"
     style="font-size:16.6978px;line-height:0.75;font-family:'Roboto Mono';-inkscape-font-specification:'Roboto Mono';letter-spacing:0px;word-spacing:0px;fill:#63b3ed;stroke-width:0.834893"
     id="path2623" />
  <path
     d="m 239.34012,45.704949 v 1.312669 h 3.00038 v 6.204602 h -3.00038 v 1.304516 h 7.38682 V 53.22222 h -2.87809 v -7.517271 z m 2.80471,-2.315515 q 0,0.366895 0.22013,0.611491 0.22829,0.244597 0.68487,0.244597 0.44843,0 0.67672,-0.244597 0.22829,-0.244596 0.22829,-0.611491 0,-0.203831 -0.0652,-0.375049 -0.0652,-0.171217 -0.19568,-0.285362 -0.10599,-0.105992 -0.26906,-0.163065 -0.16306,-0.06523 -0.37505,-0.06523 -0.21198,0 -0.3832,0.06523 -0.16306,0.05707 -0.26905,0.163065 -0.13046,0.122298 -0.19568,0.293516 -0.0571,0.171217 -0.0571,0.366895 z"
     style="font-size:16.6978px;line-height:0.75;font-family:'Roboto Mono';-inkscape-font-specification:'Roboto Mono';letter-spacing:0px;word-spacing:0px;fill:#63b3ed;stroke-width:0.834893"
     id="path2625" />
  <path
     d="m 254.98615,52.186761 q 0,0.211983 -0.0815,0.399508 -0.0815,0.187524 -0.23645,0.342435 -0.25275,0.25275 -0.70117,0.399508 -0.44843,0.138605 -1.05177,0.138605 -0.3832,0 -0.77455,-0.08153 -0.39136,-0.08153 -0.70934,-0.277209 -0.32612,-0.195678 -0.54626,-0.513653 -0.21198,-0.317976 -0.2446,-0.78271 h -1.50834 q 0,0.562573 0.25275,1.084379 0.2609,0.521806 0.75009,0.913161 0.48104,0.399508 1.18222,0.644105 0.70118,0.236443 1.59803,0.236443 0.78271,0 1.44312,-0.187524 0.66041,-0.187524 1.1333,-0.52996 0.47289,-0.342435 0.73379,-0.823475 0.26906,-0.48104 0.26906,-1.068072 0,-0.546266 -0.23645,-0.96208 -0.22829,-0.415815 -0.66856,-0.733791 -0.44028,-0.309822 -1.08438,-0.529959 -0.6441,-0.22829 -1.45943,-0.399508 -0.61964,-0.122298 -1.0273,-0.25275 -0.39951,-0.130451 -0.63595,-0.293516 -0.2446,-0.163064 -0.34244,-0.366895 -0.0978,-0.20383 -0.0978,-0.464733 0,-0.25275 0.1223,-0.489194 0.1223,-0.236443 0.36689,-0.415814 0.23645,-0.179371 0.59519,-0.285363 0.3669,-0.105992 0.84794,-0.105992 0.46473,0 0.83162,0.130452 0.37505,0.130451 0.63596,0.342435 0.2609,0.211984 0.40766,0.489193 0.14675,0.269057 0.14675,0.55442 h 1.50835 q 0,-0.578879 -0.25275,-1.076226 -0.2446,-0.5055 -0.70118,-0.880548 -0.45658,-0.375048 -1.10883,-0.587032 -0.65226,-0.211984 -1.46758,-0.211984 -0.75825,0 -1.39421,0.203831 -0.62779,0.20383 -1.08437,0.554419 -0.45658,0.350589 -0.70933,0.823475 -0.25275,0.464734 -0.25275,1.002847 0,0.546266 0.24459,0.96208 0.2446,0.407661 0.69303,0.70933 0.44027,0.309823 1.05991,0.52996 0.6278,0.220137 1.38605,0.375048 0.61965,0.122299 1.03546,0.27721 0.41582,0.146758 0.66857,0.326129 0.25275,0.179371 0.35874,0.399508 0.10599,0.211983 0.10599,0.48104 z"
     style="font-size:16.6978px;line-height:0.75;font-family:'Roboto Mono';-inkscape-font-specification:'Roboto Mono';letter-spacing:0px;word-spacing:0px;fill:#63b3ed;stroke-width:0.834893"
     id="path2627" />
  <path
     d="m 259.38074,45.704949 v 1.312669 h 3.00038 v 6.204602 h -3.00038 v 1.304516 h 7.38682 V 53.22222 h -2.87809 v -7.517271 z m 2.8047,-2.315515 q 0,0.366895 0.22014,0.611491 0.22829,0.244597 0.68487,0.244597 0.44843,0 0.67672,-0.244597 0.22829,-0.244596 0.22829,-0.611491 0,-0.203831 -0.0652,-0.375049 -0.0652,-0.171217 -0.19567,-0.285362 -0.106,-0.105992 -0.26906,-0.163065 -0.16306,-0.06523 -0.37505,-0.06523 -0.21198,0 -0.3832,0.06523 -0.16306,0.05707 -0.26906,0.163065 -0.13045,0.122298 -0.19567,0.293516 -0.0571,0.171217 -0.0571,0.366895 z"
     style="font-size:16.6978px;line-height:0.75;font-family:'Roboto Mono';-inkscape-font-specification:'Roboto Mono';letter-spacing:0px;word-spacing:0px;fill:#63b3ed;stroke-width:0.834893"
     id="path2629" />
  <path
     d="m 269.1646,54.526736 h 1.50835 v -6.326901 q 0.15491,-0.285363 0.35874,-0.521806 0.21198,-0.236444 0.45658,-0.415815 0.30167,-0.20383 0.66041,-0.317975 0.35874,-0.122299 0.77456,-0.122299 0.48104,0 0.84793,0.114145 0.37505,0.114145 0.63595,0.366895 0.25275,0.25275 0.38321,0.660411 0.13045,0.407662 0.13045,0.994694 v 5.568651 h 1.50834 v -5.601264 q 0,-0.880548 -0.22013,-1.5165 -0.21199,-0.644104 -0.6115,-1.059919 -0.3995,-0.415814 -0.97023,-0.611491 -0.56257,-0.195678 -1.2556,-0.195678 -0.51365,0.0082 -0.97838,0.154912 -0.45658,0.138604 -0.84794,0.399507 -0.2609,0.171218 -0.49734,0.407662 -0.22829,0.22829 -0.42397,0.505499 l -0.10599,-1.304515 h -1.35344 z"
     style="font-size:16.6978px;line-height:0.75;font-family:'Roboto Mono';-inkscape-font-specification:'Roboto Mono';letter-spacing:0px;word-spacing:0px;fill:#63b3ed;stroke-width:0.834893"
     id="path2631" />
  <path
     d="m 283.08215,54.6898 q 1.28821,0 2.16061,-0.513653 0.88054,-0.521806 1.32082,-1.190371 l -0.92132,-0.717483 q -0.41581,0.538113 -1.04361,0.864241 -0.6278,0.326129 -1.43497,0.326129 -0.61149,0 -1.11699,-0.22829 -0.5055,-0.22829 -0.86424,-0.627798 -0.35059,-0.375048 -0.55442,-0.864242 -0.19568,-0.489193 -0.25275,-1.133298 v -0.05707 h 6.30244 v -0.676718 q 0,-0.921314 -0.23644,-1.712176 -0.22829,-0.790863 -0.70118,-1.377895 -0.47288,-0.578879 -1.19037,-0.905008 -0.70933,-0.334282 -1.66326,-0.334282 -0.75825,0 -1.48388,0.309823 -0.71749,0.309822 -1.28006,0.888701 -0.57072,0.587032 -0.91316,1.434967 -0.34243,0.839782 -0.34243,1.907854 v 0.342436 q 0,0.921314 0.30982,1.704023 0.30982,0.782709 0.86424,1.353435 0.55442,0.570726 1.32897,0.888701 0.78271,0.317976 1.71218,0.317976 z m -0.19568,-7.908626 q 0.57888,0 0.9947,0.211984 0.42397,0.211984 0.70117,0.554419 0.27721,0.342435 0.43213,0.815322 0.15491,0.464734 0.15491,0.872395 v 0.07338 h -4.74518 q 0.0897,-0.611492 0.30982,-1.076225 0.22829,-0.472887 0.55442,-0.799016 0.32613,-0.317976 0.73379,-0.48104 0.40766,-0.171218 0.86424,-0.171219 z"
     style="font-size:16.6978px;line-height:0.75;font-family:'Roboto Mono';-inkscape-font-specification:'Roboto Mono';letter-spacing:0px;word-spacing:0px;fill:#63b3ed;stroke-width:0.834893"
     id="path2633" />
  <path
     d="m 291.83056,53.548349 q 0,0.472887 0.29351,0.807169 0.30167,0.326129 0.88871,0.326129 0.57887,0 0.8887,-0.326129 0.30982,-0.326129 0.30982,-0.807169 0,-0.489194 -0.30982,-0.823476 -0.30167,-0.342435 -0.8887,-0.342435 -0.59519,0 -0.88871,0.342435 -0.29351,0.342436 -0.29351,0.823476 z"
     style="font-size:16.6978px;line-height:0.75;font-family:'Roboto Mono';-inkscape-font-specification:'Roboto Mono';letter-spacing:0px;word-spacing:0px;fill:#63b3ed;stroke-width:0.834893"
     id="path2635" />
  <g
     id="g935"
     transform="matrix(0.12507462,0,0,0.12499983,-0.01913642,-1.0000004)"
     style="fill:#ffffff">
    <g
       id="g862"
       style="fill:#ffffff">
	<g
   id="g860"
   style="fill:#ffffff">
		<path
   d="M 498.682,435.326 297.917,234.56 63.357,0 H 45.026 l -3.743,9.511 c -9.879,25.104 -14.1,50.78 -12.205,74.249 2.16,26.752 12.323,49.913 29.392,66.982 l 183.11,183.11 24.152,-24.152 169.285,189.293 c 16.84,16.84 45.825,17.84 63.665,0 17.554,-17.554 17.554,-46.114 0,-63.667 z"
   id="path858"
   style="fill:#ffffff" />

	</g>

</g>
    <g
       id="g868"
       style="fill:#ffffff">
	<g
   id="g866"
   style="fill:#ffffff">
		<path
   d="M 156.728,291.442 13.317,434.853 c -17.552,17.552 -17.552,46.113 0,63.665 16.674,16.674 45.519,18.146 63.665,0 L 220.394,355.106 Z"
   id="path864"
   style="fill:#ffffff" />

	</g>

</g>
    <g
       id="g874"
       style="fill:#ffffff">
	<g
   id="g872"
   style="fill:#ffffff">
		<path
   d="m 490.253,85.249 -81.351,81.35 -21.223,-21.222 81.351,-81.351 -21.222,-21.222 -81.35,81.35 -21.222,-21.222 81.351,-81.35 -21.221,-21.221 -106.11,106.11 c -12.981,12.981 -20.732,30.217 -21.828,48.535 -0.277,4.641 -1.329,9.206 -3.074,13.548 l 68.929,68.929 c 4.342,-1.747 8.908,-2.798 13.548,-3.075 18.318,-1.093 35.554,-8.846 48.535,-21.827 l 106.11,-106.109 z"
   id="path870"
   style="fill:#ffffff" />

	</g>

</g>
    <g
       id="g876"
       style="fill:#ffffff">
</g>
    <g
       id="g878"
       style="fill:#ffffff">
</g>
    <g
       id="g880"
       style="fill:#ffffff">
</g>
    <g
       id="g882"
       style="fill:#ffffff">
</g>
    <g
       id="g884"
       style="fill:#ffffff">
</g>
    <g
       id="g886"
       style="fill:#ffffff">
</g>
    <g
       id="g888"
       style="fill:#ffffff">
</g>
    <g
       id="g890"
       style="fill:#ffffff">
</g>
    <g
       id="g892"
       style="fill:#ffffff">
</g>
    <g
       id="g894"
       style="fill:#ffffff">
</g>
    <g
       id="g896"
       style="fill:#ffffff">
</g>
    <g
       id="g898"
       style="fill:#ffffff">
</g>
    <g
       id="g900"
       style="fill:#ffffff">
</g>
    <g
       id="g902"
       style="fill:#ffffff">
</g>
    <g
       id="g904"
       style="fill:#ffffff">
</g>
  </g>
</svg>
