<?xml version="1.0" encoding="UTF-8" standalone="no"?>
<svg
   width="256"
   height="256"
   viewBox="0 0 256 256"
   fill="none"
   version="1.1"
   id="svg66"
   sodipodi:docname="logo (copy).svg"
   inkscape:version="1.1 (ce6663b3b7, 2021-05-25)"
   xmlns:inkscape="http://www.inkscape.org/namespaces/inkscape"
   xmlns:sodipodi="http://sodipodi.sourceforge.net/DTD/sodipodi-0.dtd"
   xmlns="http://www.w3.org/2000/svg"
   xmlns:svg="http://www.w3.org/2000/svg">
  <defs
     id="defs70" />
  <sodipodi:namedview
     id="namedview68"
     pagecolor="#505050"
     bordercolor="#eeeeee"
     borderopacity="1"
     inkscape:pageshadow="0"
     inkscape:pageopacity="0"
     inkscape:pagecheckerboard="0"
     showgrid="false"
     inkscape:zoom="1.0073052"
     inkscape:cx="-43.680902"
     inkscape:cy="136.00645"
     inkscape:window-width="1366"
     inkscape:window-height="731"
     inkscape:window-x="0"
     inkscape:window-y="0"
     inkscape:window-maximized="1"
     inkscape:current-layer="svg66" />
  <g
     id="g935"
     transform="matrix(0.26804741,0,0,0.26788714,59.379795,-4.5926844e-6)"
     style="fill:#ffffff">
    <g
       id="g862"
       style="fill:#ffffff">
      <g
         id="g860"
         style="fill:#ffffff">
        <path
           d="M 498.682,435.326 297.917,234.56 63.357,0 H 45.026 l -3.743,9.511 c -9.879,25.104 -14.1,50.78 -12.205,74.249 2.16,26.752 12.323,49.913 29.392,66.982 l 183.11,183.11 24.152,-24.152 169.285,189.293 c 16.84,16.84 45.825,17.84 63.665,0 17.554,-17.554 17.554,-46.114 0,-63.667 z"
           id="path858"
           style="fill:#ffffff" />
      </g>
    </g>
    <g
       id="g868"
       style="fill:#ffffff">
      <g
         id="g866"
         style="fill:#ffffff">
        <path
           d="M 156.728,291.442 13.317,434.853 c -17.552,17.552 -17.552,46.113 0,63.665 16.674,16.674 45.519,18.146 63.665,0 L 220.394,355.106 Z"
           id="path864"
           style="fill:#ffffff" />
      </g>
    </g>
    <g
       id="g874"
       style="fill:#ffffff">
      <g
         id="g872"
         style="fill:#ffffff">
        <path
           d="m 490.253,85.249 -81.351,81.35 -21.223,-21.222 81.351,-81.351 -21.222,-21.222 -81.35,81.35 -21.222,-21.222 81.351,-81.35 -21.221,-21.221 -106.11,106.11 c -12.981,12.981 -20.732,30.217 -21.828,48.535 -0.277,4.641 -1.329,9.206 -3.074,13.548 l 68.929,68.929 c 4.342,-1.747 8.908,-2.798 13.548,-3.075 18.318,-1.093 35.554,-8.846 48.535,-21.827 l 106.11,-106.109 z"
           id="path870"
           style="fill:#ffffff" />
      </g>
    </g>
    <g
       id="g876"
       style="fill:#ffffff" />
    <g
       id="g878"
       style="fill:#ffffff" />
    <g
       id="g880"
       style="fill:#ffffff" />
    <g
       id="g882"
       style="fill:#ffffff" />
    <g
       id="g884"
       style="fill:#ffffff" />
    <g
       id="g886"
       style="fill:#ffffff" />
    <g
       id="g888"
       style="fill:#ffffff" />
    <g
       id="g890"
       style="fill:#ffffff" />
    <g
       id="g892"
       style="fill:#ffffff" />
    <g
       id="g894"
       style="fill:#ffffff" />
    <g
       id="g896"
       style="fill:#ffffff" />
    <g
       id="g898"
       style="fill:#ffffff" />
    <g
       id="g900"
       style="fill:#ffffff" />
    <g
       id="g902"
       style="fill:#ffffff" />
    <g
       id="g904"
       style="fill:#ffffff" />
  </g>
  <g
     aria-label="Good
Food"
     id="text5926"
     style="font-size:60.0214px;line-height:1;font-family:'Roboto Mono';-inkscape-font-specification:'Roboto Mono';letter-spacing:0px;word-spacing:0px;stroke-width:1.50054">
    <path
       d="m 90.046958,190.38087 -0.02931,-16.82241 H 74.748535 V 179.713 H 81.8116 l -0.02931,7.73714 q -0.322381,0.38099 -0.967142,0.73268 -0.615454,0.32238 -1.436059,0.58615 -0.820605,0.26376 -1.758439,0.4103 -0.937835,0.14653 -1.904976,0.14653 -1.582596,-0.0293 -2.842811,-0.49822 -1.230907,-0.49822 -2.168742,-1.43606 -0.556839,-0.55684 -1.025756,-1.26021 -0.43961,-0.73269 -0.791298,-1.5826 -0.556839,-1.46537 -0.87922,-3.37034 -0.293073,-1.90498 -0.293073,-4.22026 v -5.86146 q 0,-1.84636 0.205151,-3.42896 0.234459,-1.58259 0.644761,-2.87212 0.527532,-1.67051 1.31883,-2.90142 0.820605,-1.23091 1.817054,-1.9929 0.761991,-0.55684 1.64121,-0.84991 0.87922,-0.29307 1.817054,-0.29307 1.729133,0 2.96004,0.46891 1.260215,0.43961 2.08082,1.34814 0.732683,0.8206 1.142986,2.0222 0.43961,1.2016 0.644761,2.75489 h 8.030207 q -0.322381,-3.07727 -1.377444,-5.53908 -1.025757,-2.46182 -2.872118,-4.19095 -1.846361,-1.69982 -4.542635,-2.60835 -2.666967,-0.90853 -6.271768,-0.90853 -2.344586,0 -4.454713,0.64476 -2.110127,0.64476 -3.897874,1.90498 -1.523981,1.11368 -2.813503,2.63766 -1.260215,1.52398 -2.227357,3.42896 -1.025756,2.13943 -1.582596,4.77709 -0.556839,2.60835 -0.556839,5.65631 v 5.80285 q 0,3.1945 0.556839,5.92008 0.586147,2.72558 1.699825,4.89433 0.967142,1.96359 2.344586,3.48757 1.406752,1.52398 3.106577,2.57904 1.729132,1.02576 3.780644,1.55329 2.08082,0.55684 4.425406,0.55684 2.696274,0 5.04086,-0.49822 2.344586,-0.49823 4.249562,-1.31883 1.875669,-0.7913 3.253113,-1.78775 1.377445,-0.99645 2.168742,-1.96359 z"
       style="font-weight:bold;fill:#ffffff"
       id="path10312" />
    <path
       d="m 95.908425,179.21478 v 0.61545 q 0,3.48757 0.996449,6.44761 0.996449,2.93074 2.930732,5.09948 1.904974,2.16874 4.689174,3.39965 2.8135,1.2016 6.389,1.2016 3.54618,0 6.33038,-1.2016 2.78419,-1.23091 4.68917,-3.39965 1.90498,-2.16874 2.90142,-5.09948 0.99645,-2.96004 0.99645,-6.44761 v -0.61545 q 0,-3.45827 -0.99645,-6.389 -0.99644,-2.96004 -2.90142,-5.12878 -1.93428,-2.16874 -4.71848,-3.39965 -2.7842,-1.23091 -6.35969,-1.23091 -3.57549,0 -6.35969,1.23091 -2.75489,1.23091 -4.659864,3.39965 -1.934283,2.16874 -2.930732,5.12878 -0.996449,2.93073 -0.996449,6.389 z m 8.147435,0.61545 v -0.61545 q 0,-1.93429 0.381,-3.66342 0.38099,-1.72913 1.2016,-3.04796 0.8206,-1.31883 2.11012,-2.08082 1.28953,-0.76199 3.10658,-0.76199 1.84636,0 3.13588,0.76199 1.28953,0.76199 2.11013,2.08082 0.7913,1.31883 1.17229,3.04796 0.381,1.72913 0.381,3.66342 v 0.61545 q 0,1.9929 -0.381,3.75134 -0.38099,1.72913 -1.17229,3.01865 -0.8206,1.31883 -2.11013,2.08082 -1.28952,0.76199 -3.07726,0.76199 -1.84637,0 -3.1652,-0.76199 -1.28952,-0.76199 -2.11012,-2.08082 -0.82061,-1.28952 -1.2016,-3.01865 -0.381,-1.75844 -0.381,-3.75134 z"
       style="font-weight:bold;fill:#ffffff"
       id="path10314" />
    <path
       d="m 131.92713,179.21478 v 0.61545 q 0,3.48757 0.99645,6.44761 0.99645,2.93074 2.93073,5.09948 1.90498,2.16874 4.68917,3.39965 2.8135,1.2016 6.389,1.2016 3.54618,0 6.33038,-1.2016 2.7842,-1.23091 4.68917,-3.39965 1.90498,-2.16874 2.90143,-5.09948 0.99645,-2.96004 0.99645,-6.44761 v -0.61545 q 0,-3.45827 -0.99645,-6.389 -0.99645,-2.96004 -2.90143,-5.12878 -1.93428,-2.16874 -4.71848,-3.39965 -2.78419,-1.23091 -6.35969,-1.23091 -3.57549,0 -6.35969,1.23091 -2.75488,1.23091 -4.65986,3.39965 -1.93428,2.16874 -2.93073,5.12878 -0.99645,2.93073 -0.99645,6.389 z m 8.14743,0.61545 v -0.61545 q 0,-1.93429 0.381,-3.66342 0.381,-1.72913 1.2016,-3.04796 0.82061,-1.31883 2.11013,-2.08082 1.28952,-0.76199 3.10657,-0.76199 1.84637,0 3.13589,0.76199 1.28952,0.76199 2.11012,2.08082 0.7913,1.31883 1.1723,3.04796 0.38099,1.72913 0.38099,3.66342 v 0.61545 q 0,1.9929 -0.38099,3.75134 -0.381,1.72913 -1.1723,3.01865 -0.8206,1.31883 -2.11012,2.08082 -1.28952,0.76199 -3.07727,0.76199 -1.84636,0 -3.16519,-0.76199 -1.28952,-0.76199 -2.11013,-2.08082 -0.8206,-1.28952 -1.2016,-3.01865 -0.381,-1.75844 -0.381,-3.75134 z"
       style="font-weight:bold;fill:#ffffff"
       id="path10316" />
    <path
       d="m 168.20959,179.27339 v 0.61546 q 0,3.45826 0.84992,6.4183 0.84991,2.93073 2.46181,5.07017 1.5826,2.13943 3.86857,3.37034 2.31528,1.2016 5.2167,1.2016 2.66697,0 4.68917,-1.02576 2.02221,-1.02575 3.51688,-2.87211 l 0.41031,3.31172 h 7.35613 v -45.01605 h -8.17674 v 16.14834 q -1.46537,-1.64121 -3.37034,-2.52043 -1.87567,-0.90853 -4.36679,-0.90853 -2.96004,0 -5.27532,1.17229 -2.28597,1.1723 -3.89788,3.31173 -1.6119,2.13944 -2.46181,5.12878 -0.82061,2.98935 -0.82061,6.59415 z m 8.14744,0.61546 v -0.61546 q 0,-1.9929 0.35169,-3.72203 0.35169,-1.75844 1.11368,-3.07727 0.76199,-1.28952 1.96359,-2.0222 1.2309,-0.76199 2.96004,-0.76199 2.08082,0 3.45826,0.90852 1.37745,0.87922 2.19805,2.49113 v 12.8366 q -0.8206,1.5826 -2.22736,2.49113 -1.37744,0.90852 -3.48757,0.90852 -1.72913,0 -2.93073,-0.73268 -1.2016,-0.73268 -1.96359,-2.0222 -0.76199,-1.26022 -1.11368,-2.96004 -0.32238,-1.72914 -0.32238,-3.72203 z"
       style="font-weight:bold;fill:#ffffff"
       id="path10318" />
    <path
       d="m 87.790294,237.7122 v -6.68207 h -18.28777 v -11.6057 h 20.573742 v -6.71138 H 61.237858 v 42.67146 h 8.264666 V 237.7122 Z"
       style="font-weight:bold;fill:#ffffff"
       id="path10320" />
    <path
       d="m 95.908425,239.23618 v 0.61545 q 0,3.48757 0.996449,6.44761 0.996449,2.93074 2.930732,5.09948 1.904974,2.16874 4.689174,3.39965 2.8135,1.2016 6.389,1.2016 3.54618,0 6.33038,-1.2016 2.78419,-1.23091 4.68917,-3.39965 1.90498,-2.16874 2.90142,-5.09948 0.99645,-2.96004 0.99645,-6.44761 v -0.61545 q 0,-3.45827 -0.99645,-6.389 -0.99644,-2.96004 -2.90142,-5.12878 -1.93428,-2.16874 -4.71848,-3.39965 -2.7842,-1.23091 -6.35969,-1.23091 -3.57549,0 -6.35969,1.23091 -2.75489,1.23091 -4.659864,3.39965 -1.934283,2.16874 -2.930732,5.12878 -0.996449,2.93073 -0.996449,6.389 z m 8.147435,0.61545 v -0.61545 q 0,-1.93429 0.381,-3.66342 0.38099,-1.72913 1.2016,-3.04796 0.8206,-1.31883 2.11012,-2.08082 1.28953,-0.76199 3.10658,-0.76199 1.84636,0 3.13588,0.76199 1.28953,0.76199 2.11013,2.08082 0.7913,1.31883 1.17229,3.04796 0.381,1.72913 0.381,3.66342 v 0.61545 q 0,1.9929 -0.381,3.75134 -0.38099,1.72913 -1.17229,3.01865 -0.8206,1.31883 -2.11013,2.08082 -1.28952,0.76199 -3.07726,0.76199 -1.84637,0 -3.1652,-0.76199 -1.28952,-0.76199 -2.11012,-2.08082 -0.82061,-1.28952 -1.2016,-3.01865 -0.381,-1.75844 -0.381,-3.75134 z"
       style="font-weight:bold;fill:#ffffff"
       id="path10322" />
    <path
       d="m 131.92713,239.23618 v 0.61545 q 0,3.48757 0.99645,6.44761 0.99645,2.93074 2.93073,5.09948 1.90498,2.16874 4.68917,3.39965 2.8135,1.2016 6.389,1.2016 3.54618,0 6.33038,-1.2016 2.7842,-1.23091 4.68917,-3.39965 1.90498,-2.16874 2.90143,-5.09948 0.99645,-2.96004 0.99645,-6.44761 v -0.61545 q 0,-3.45827 -0.99645,-6.389 -0.99645,-2.96004 -2.90143,-5.12878 -1.93428,-2.16874 -4.71848,-3.39965 -2.78419,-1.23091 -6.35969,-1.23091 -3.57549,0 -6.35969,1.23091 -2.75488,1.23091 -4.65986,3.39965 -1.93428,2.16874 -2.93073,5.12878 -0.99645,2.93073 -0.99645,6.389 z m 8.14743,0.61545 v -0.61545 q 0,-1.93429 0.381,-3.66342 0.381,-1.72913 1.2016,-3.04796 0.82061,-1.31883 2.11013,-2.08082 1.28952,-0.76199 3.10657,-0.76199 1.84637,0 3.13589,0.76199 1.28952,0.76199 2.11012,2.08082 0.7913,1.31883 1.1723,3.04796 0.38099,1.72913 0.38099,3.66342 v 0.61545 q 0,1.9929 -0.38099,3.75134 -0.381,1.72913 -1.1723,3.01865 -0.8206,1.31883 -2.11012,2.08082 -1.28952,0.76199 -3.07727,0.76199 -1.84636,0 -3.16519,-0.76199 -1.28952,-0.76199 -2.11013,-2.08082 -0.8206,-1.28952 -1.2016,-3.01865 -0.381,-1.75844 -0.381,-3.75134 z"
       style="font-weight:bold;fill:#ffffff"
       id="path10324" />
    <path
       d="m 168.20959,239.29479 v 0.61546 q 0,3.45826 0.84992,6.4183 0.84991,2.93073 2.46181,5.07017 1.5826,2.13943 3.86857,3.37034 2.31528,1.2016 5.2167,1.2016 2.66697,0 4.68917,-1.02576 2.02221,-1.02575 3.51688,-2.87211 l 0.41031,3.31172 h 7.35613 v -45.01605 h -8.17674 v 16.14834 q -1.46537,-1.64121 -3.37034,-2.52043 -1.87567,-0.90853 -4.36679,-0.90853 -2.96004,0 -5.27532,1.1723 -2.28597,1.17229 -3.89788,3.31172 -1.6119,2.13944 -2.46181,5.12878 -0.82061,2.98935 -0.82061,6.59415 z m 8.14744,0.61546 v -0.61546 q 0,-1.9929 0.35169,-3.72203 0.35169,-1.75844 1.11368,-3.07727 0.76199,-1.28952 1.96359,-2.0222 1.2309,-0.76199 2.96004,-0.76199 2.08082,0 3.45826,0.90852 1.37745,0.87922 2.19805,2.49113 v 12.83661 q -0.8206,1.58259 -2.22736,2.49112 -1.37744,0.90853 -3.48757,0.90853 -1.72913,0 -2.93073,-0.73269 -1.2016,-0.73268 -1.96359,-2.0222 -0.76199,-1.26022 -1.11368,-2.96004 -0.32238,-1.72914 -0.32238,-3.72203 z"
       style="font-weight:bold;fill:#ffffff"
       id="path10326" />
  </g>
</svg>
