<?xml version="1.0" encoding="UTF-8" standalone="no"?>
<!-- Generator: Adobe Illustrator 19.0.0, SVG Export Plug-In . SVG Version: 6.00 Build 0)  -->

<svg
   version="1.1"
   id="Capa_1"
   x="0px"
   y="0px"
   viewBox="0 0 256 256"
   xml:space="preserve"
   sodipodi:docname="restaurant.svg"
   width="256"
   height="256"
   inkscape:version="1.1 (ce6663b3b7, 2021-05-25)"
   xmlns:inkscape="http://www.inkscape.org/namespaces/inkscape"
   xmlns:sodipodi="http://sodipodi.sourceforge.net/DTD/sodipodi-0.dtd"
   xmlns="http://www.w3.org/2000/svg"
   xmlns:svg="http://www.w3.org/2000/svg"><defs
   id="defs53" /><sodipodi:namedview
   id="namedview51"
   pagecolor="#505050"
   bordercolor="#eeeeee"
   borderopacity="1"
   inkscape:pageshadow="0"
   inkscape:pageopacity="0"
   inkscape:pagecheckerboard="0"
   showgrid="false"
   inkscape:zoom="0.46386719"
   inkscape:cx="237.13684"
   inkscape:cy="273.78526"
   inkscape:window-width="1366"
   inkscape:window-height="731"
   inkscape:window-x="0"
   inkscape:window-y="0"
   inkscape:window-maximized="1"
   inkscape:current-layer="Capa_1" />

















<g
   id="g912"
   transform="matrix(0.50029852,0,0,0.49999931,-0.07654619,1.0991402e-6)"><g
     id="g6"
     style="fill:#ffffff">
	<g
   id="g4"
   style="fill:#ffffff">
		<path
   d="M 498.682,435.326 297.917,234.56 63.357,0 H 45.026 l -3.743,9.511 c -9.879,25.104 -14.1,50.78 -12.205,74.249 2.16,26.752 12.323,49.913 29.392,66.982 l 183.11,183.11 24.152,-24.152 169.285,189.293 c 16.84,16.84 45.825,17.84 63.665,0 17.554,-17.554 17.554,-46.114 0,-63.667 z"
   id="path2"
   style="fill:#ffffff" />
	</g>
</g><g
     id="g12"
     style="fill:#ffffff">
	<g
   id="g10"
   style="fill:#ffffff">
		<path
   d="M 156.728,291.442 13.317,434.853 c -17.552,17.552 -17.552,46.113 0,63.665 16.674,16.674 45.519,18.146 63.665,0 L 220.394,355.106 Z"
   id="path8"
   style="fill:#ffffff" />
	</g>
</g><g
     id="g18"
     style="fill:#ffffff">
	<g
   id="g16"
   style="fill:#ffffff">
		<path
   d="m 490.253,85.249 -81.351,81.35 -21.223,-21.222 81.351,-81.351 -21.222,-21.222 -81.35,81.35 -21.222,-21.222 81.351,-81.35 -21.221,-21.221 -106.11,106.11 c -12.981,12.981 -20.732,30.217 -21.828,48.535 -0.277,4.641 -1.329,9.206 -3.074,13.548 l 68.929,68.929 c 4.342,-1.747 8.908,-2.798 13.548,-3.075 18.318,-1.093 35.554,-8.846 48.535,-21.827 l 106.11,-106.109 z"
   id="path14"
   style="fill:#ffffff" />
	</g>
</g><g
     id="g20"
     style="fill:#ffffff">
</g><g
     id="g22"
     style="fill:#ffffff">
</g><g
     id="g24"
     style="fill:#ffffff">
</g><g
     id="g26"
     style="fill:#ffffff">
</g><g
     id="g28"
     style="fill:#ffffff">
</g><g
     id="g30"
     style="fill:#ffffff">
</g><g
     id="g32"
     style="fill:#ffffff">
</g><g
     id="g34"
     style="fill:#ffffff">
</g><g
     id="g36"
     style="fill:#ffffff">
</g><g
     id="g38"
     style="fill:#ffffff">
</g><g
     id="g40"
     style="fill:#ffffff">
</g><g
     id="g42"
     style="fill:#ffffff">
</g><g
     id="g44"
     style="fill:#ffffff">
</g><g
     id="g46"
     style="fill:#ffffff">
</g><g
     id="g48"
     style="fill:#ffffff">
</g></g>
</svg>
